# xmcd
#
# Track frame offsets: 
#        182
#        11437
#        24940
#        39530
#        53035
#        67187
#        78887
#        89837
#        102120
#        115875
#        127417
#        138787
#        150767
#        164120
#        177320
#        187970
#        201495
#        212487
#        224427
#        239437
#        251552
#
# Disc length: 3512 seconds
#
# Revision: 2
# Processed by: cddbd v1.5.2PL0 Copyright (c) Steve Scherf et al.
# Submitted via: ExactAudioCopyFreeDBPlugin 1.0
#
DISCID=2a0db615
DTITLE=The Clovers - Down in the Alley:  The Best of The Clovers
DYEAR=1991
DGENRE=Rhythm and Blues
TTITLE0=One Mint Julep
TTITLE1=Good Lovin'
TTITLE2=Don't You Know I Love You
TTITLE3=Wonder Where My Baby's Gone
TTITLE4=Ting-A-Ling
TTITLE5=Crawlin'
TTITLE6=Hey, Miss Fannie
TTITLE7=Lovey Dovey
TTITLE8=Middle of the Night
TTITLE9=Fool, Fool, Fool
TTITLE10=I've Got My Eyes on You
TTITLE11=I Confess
TTITLE12=Your Cash Ain't Nothin' But Trash
TTITLE13=Little Mama
TTITLE14=Down in the Alley
TTITLE15=Nip Sip
TTITLE16=Devil or Angel
TTITLE17=Blue Velvet
TTITLE18=In the Morning Time
TTITLE19=Love Bug
TTITLE20=If I Could Be Loved by You
EXTD=
EXTT0=
EXTT1=
EXTT2=
EXTT3=
EXTT4=
EXTT5=
EXTT6=
EXTT7=
EXTT8=
EXTT9=
EXTT10=
EXTT11=
EXTT12=
EXTT13=
EXTT14=
EXTT15=
EXTT16=
EXTT17=
EXTT18=
EXTT19=
EXTT20=
PLAYORDER=
